<svg xmlns="http://www.w3.org/2000/svg" xmlns:xlink="http://www.w3.org/1999/xlink" viewBox="0 0 1573.05 1304.758"><defs><linearGradient id="a" x1="345.467" x2="491.161" y1="760.835" y2="760.835" gradientUnits="userSpaceOnUse"><stop offset="0" stop-color="#c6cbe7" class="stopColorc6cbe7 svgShape"/><stop offset=".282" stop-color="#cacee8" class="stopColorcacee8 svgShape"/><stop offset=".535" stop-color="#d4d8ed" class="stopColord4d8ed svgShape"/><stop offset=".776" stop-color="#e7e9f5" class="stopColore7e9f5 svgShape"/><stop offset="1" stop-color="#ffffff" class="stopColorfff svgShape"/></linearGradient><linearGradient id="j" x1="1250.407" x2="1356.072" y1="1005.599" y2="1005.599" xlink:href="#a"/><linearGradient id="k" x1="709.249" x2="917.979" y1="1129.238" y2="1129.238" xlink:href="#a"/><linearGradient id="b" x1="673.866" x2="861.26" y1="1150.91" y2="1150.91" gradientUnits="userSpaceOnUse"><stop offset=".379" stop-color="#4141aa" class="stopColor4141aa svgShape"/><stop offset=".596" stop-color="#20196f" class="stopColor20196f svgShape"/></linearGradient><linearGradient id="c" x1="768.915" x2="768.915" y1="1127.844" y2="1095.93" gradientUnits="userSpaceOnUse"><stop offset="0" stop-color="#ed995a" class="stopColored995a svgShape"/><stop offset="1" stop-color="#4141aa" class="stopColor4141aa svgShape"/></linearGradient><linearGradient id="l" x1="311.894" x2="457.589" y1="771.651" y2="771.651" xlink:href="#b"/><linearGradient id="m" x1="385.408" x2="385.408" y1="750.76" y2="730.76" xlink:href="#c"/><linearGradient id="n" x1="1232.754" x2="1325.029" y1="1011.674" y2="1011.674" xlink:href="#b"/><linearGradient id="o" x1="1278.891" x2="1278.891" y1="998.269" y2="976.221" gradientUnits="userSpaceOnUse"><stop offset="0" stop-color="#ba6038" class="stopColorba6038 svgShape"/><stop offset=".113" stop-color="#9b502f" class="stopColor9b502f svgShape"/><stop offset=".338" stop-color="#64341e" class="stopColor64341e svgShape"/><stop offset=".546" stop-color="#391d11" class="stopColor391d11 svgShape"/><stop offset=".733" stop-color="#1a0d08" class="stopColor1a0d08 svgShape"/><stop offset=".89" stop-color="#070402" class="stopColor070402 svgShape"/><stop offset="1" stop-color="#000000" class="stopColor000000 svgShape"/></linearGradient><linearGradient id="p" x1="519.605" x2="1435.849" y1="859.496" y2="859.496" gradientUnits="userSpaceOnUse"><stop offset="0" stop-color="#a7adce" class="stopColora7adce svgShape"/><stop offset=".325" stop-color="#a9afcf" class="stopColora9afcf svgShape"/><stop offset=".516" stop-color="#b2b7d4" class="stopColorb2b7d4 svgShape"/><stop offset=".672" stop-color="#c0c4dc" class="stopColorc0c4dc svgShape"/><stop offset=".809" stop-color="#d4d7e7" class="stopColord4d7e7 svgShape"/><stop offset=".933" stop-color="#eeeff5" class="stopColoreeeff5 svgShape"/><stop offset="1" stop-color="#ffffff" class="stopColorfff svgShape"/></linearGradient><linearGradient id="q" x1="900.512" x2="1260.774" y1="234.901" y2="858.894" gradientUnits="userSpaceOnUse"><stop offset=".576" stop-color="#807dfb" class="stopColor807dfb svgShape"/><stop offset=".612" stop-color="#20196f" class="stopColor20196f svgShape"/></linearGradient><linearGradient id="r" x1="1207.629" x2="790.866" y1="852.894" y2="313.24" gradientUnits="userSpaceOnUse"><stop offset="0" stop-color="#1e1c6b" class="stopColor1e1c6b svgShape"/><stop offset="1" stop-color="#34318f" class="stopColor34318f svgShape"/></linearGradient><linearGradient id="s" x1="485.326" x2="1217.625" y1="931.361" y2="931.361" gradientUnits="userSpaceOnUse"><stop offset=".562" stop-color="#4141aa" class="stopColor4141aa svgShape"/><stop offset=".612" stop-color="#20196f" class="stopColor20196f svgShape"/></linearGradient><linearGradient id="t" x1="761.058" x2="801.818" y1="480.548" y2="480.548" gradientTransform="matrix(.866 .5 -1 .5774 389.762 92.824)" gradientUnits="userSpaceOnUse"><stop offset="0" stop-color="#f1f1f6" class="stopColorf1f1f6 svgShape"/><stop offset="1" stop-color="#ffffff" class="stopColorfff svgShape"/></linearGradient><linearGradient id="d" x1="1182.302" x2="1230.021" y1="745.906" y2="745.906" gradientTransform="matrix(.866 .5 -1 .5774 701.058 4.343)" gradientUnits="userSpaceOnUse"><stop offset="0" stop-color="#471c0f" class="stopColor471c0f svgShape"/><stop offset=".008" stop-color="#461c0f" class="stopColor461c0f svgShape"/><stop offset=".249" stop-color="#271008" class="stopColor271008 svgShape"/><stop offset=".485" stop-color="#120704" class="stopColor120704 svgShape"/><stop offset=".712" stop-color="#040201" class="stopColor040201 svgShape"/><stop offset=".919" stop-color="#000000" class="stopColor000000 svgShape"/></linearGradient><linearGradient id="e" x1="1039.462" x2="1062.763" y1="1194.685" y2="1194.685" gradientTransform="matrix(.866 -.5 0 1.1547 71.012 173.533)" gradientUnits="userSpaceOnUse"><stop offset="0" stop-color="#d67747" class="stopColord67747 svgShape"/><stop offset=".23" stop-color="#b26039" class="stopColorb26039 svgShape"/><stop offset=".757" stop-color="#652f1b" class="stopColor652f1b svgShape"/><stop offset="1" stop-color="#471c0f" class="stopColor471c0f svgShape"/></linearGradient><linearGradient id="u" x1="1182.304" x2="1230.023" y1="705.551" y2="705.551" xlink:href="#d"/><linearGradient id="v" x1="1086.064" x2="1109.364" y1="1194.686" y2="1194.686" xlink:href="#e"/><linearGradient id="f" x1="795.248" x2="884.048" y1="1077.358" y2="1077.358" gradientTransform="translate(-228.072)" gradientUnits="userSpaceOnUse"><stop offset="0" stop-color="#c4cae8" class="stopColorc4cae8 svgShape"/><stop offset=".095" stop-color="#ced3ec" class="stopColorced3ec svgShape"/><stop offset=".409" stop-color="#e9ebf6" class="stopColore9ebf6 svgShape"/><stop offset=".687" stop-color="#f9fafd" class="stopColorf9fafd svgShape"/><stop offset=".899" stop-color="#ffffff" class="stopColorfff svgShape"/></linearGradient><linearGradient id="w" x1="708.505" x2="799.832" y1="1062.098" y2="1062.098" gradientTransform="translate(-186.014)" xlink:href="#f"/><linearGradient id="g" x1="-1519.435" x2="-1485.769" y1="1058.875" y2="1058.875" gradientTransform="matrix(-1 0 0 1 -972.918 0)" gradientUnits="userSpaceOnUse"><stop offset="0" stop-color="#423eaf" class="stopColor423eaf svgShape"/><stop offset=".304" stop-color="#3a35a0" class="stopColor3a35a0 svgShape"/><stop offset=".891" stop-color="#241e77" class="stopColor241e77 svgShape"/><stop offset="1" stop-color="#1f196f" class="stopColor1f196f svgShape"/></linearGradient><linearGradient id="x" x1="-1560.65" x2="-1526.986" y1="1073.568" y2="1073.568" xlink:href="#g"/><linearGradient id="y" x1="-1546.029" x2="-1488.153" y1="993.128" y2="993.128" gradientTransform="matrix(-1 0 0 1 -972.918 0)" gradientUnits="userSpaceOnUse"><stop offset="0" stop-color="#423eaf" class="stopColor423eaf svgShape"/><stop offset=".301" stop-color="#353097" class="stopColor353097 svgShape"/><stop offset=".746" stop-color="#251f7a" class="stopColor251f7a svgShape"/><stop offset="1" stop-color="#1f196f" class="stopColor1f196f svgShape"/></linearGradient><linearGradient id="h" x1="514.507" x2="628.347" y1="881.604" y2="881.604" gradientUnits="userSpaceOnUse"><stop offset=".086" stop-color="#5555c6" class="stopColor5555c6 svgShape"/><stop offset=".426" stop-color="#6262d4" class="stopColor6262d4 svgShape"/><stop offset="1" stop-color="#7f7ff4" class="stopColor7f7ff4 svgShape"/></linearGradient><linearGradient id="z" x1="585.163" x2="585.163" y1="924.987" y2="853.45" gradientUnits="userSpaceOnUse"><stop offset="0" stop-color="#000000" class="stopColor000000 svgShape"/><stop offset=".19" stop-color="#210f07" class="stopColor210f07 svgShape"/><stop offset=".604" stop-color="#743419" class="stopColor743419 svgShape"/><stop offset="1" stop-color="#c85a2b" class="stopColorc85a2b svgShape"/></linearGradient><linearGradient id="A" x1="532.876" x2="558.96" y1="842.035" y2="842.035" xlink:href="#h"/><linearGradient id="B" x1="593.649" x2="593.649" y1="848.324" y2="817.785" gradientUnits="userSpaceOnUse"><stop offset="0" stop-color="#471c0f" class="stopColor471c0f svgShape"/><stop offset=".176" stop-color="#552414" class="stopColor552414 svgShape"/><stop offset=".507" stop-color="#793a21" class="stopColor793a21 svgShape"/><stop offset=".955" stop-color="#b45c36" class="stopColorb45c36 svgShape"/><stop offset="1" stop-color="#ba6038" class="stopColorba6038 svgShape"/></linearGradient><linearGradient id="C" x1="563.215" x2="563.215" y1="812.446" y2="788.737" gradientUnits="userSpaceOnUse"><stop offset="0" stop-color="#000000" class="stopColor000000 svgShape"/><stop offset=".54" stop-color="#291009" class="stopColor291009 svgShape"/><stop offset="1" stop-color="#471c0f" class="stopColor471c0f svgShape"/></linearGradient><linearGradient id="i" x1="358.045" x2="444.506" y1="627.107" y2="627.107" gradientUnits="userSpaceOnUse"><stop offset="0" stop-color="#cfd5f1" class="stopColorcfd5f1 svgShape"/><stop offset=".283" stop-color="#e1e5f6" class="stopColore1e5f6 svgShape"/><stop offset=".719" stop-color="#f7f8fd" class="stopColorf7f8fd svgShape"/><stop offset="1" stop-color="#ffffff" class="stopColorfff svgShape"/></linearGradient><linearGradient id="E" x1="1332.01" x2="1409.939" y1="1113.131" y2="1113.131" xlink:href="#i"/><linearGradient id="F" x1="159.613" x2="218.214" y1="1037.188" y2="1037.188" xlink:href="#i"/><radialGradient id="D" cx="684.144" cy="663.719" r="16.924" gradientTransform="matrix(.49997 .86602 -.50001 .86602 633.992 -359.936)" gradientUnits="userSpaceOnUse"><stop offset="0" stop-color="#e57139" class="stopColore57139 svgShape"/><stop offset=".236" stop-color="#c75f30" class="stopColorc75f30 svgShape"/><stop offset=".746" stop-color="#7a3219" class="stopColor7a3219 svgShape"/><stop offset="1" stop-color="#511a0d" class="stopColor511a0d svgShape"/></radialGradient></defs><g data-name="Little block" fill="#000000" class="color000 svgShape"><path fill="#171756" d="M873.338 1187.689a22.41 22.41 0 01-11.21-2.995l-94.556-54.591 1-1.73 94.557 54.591a20.488 20.488 0 0020.418 0l149.09-86.076a6.244 6.244 0 000-10.816l-87.364-50.44 1-1.73 87.363 50.439a8.242 8.242 0 010 14.277l-149.09 86.077a22.41 22.41 0 01-11.208 2.994zM385.908 755.894l-1-1.73 159.957-92.35a22.475 22.475 0 0122.416 0l125.185 72.275-1 1.73-125.185-72.275a20.485 20.485 0 00-20.416 0zM1214.896 1045.273a22.415 22.415 0 01-11.209-2.994l-125.185-72.276 1-1.73 125.185 72.275a20.485 20.485 0 0020.416 0l57.239-33.045 1 1.73-57.239 33.046a22.407 22.407 0 01-11.207 2.994z" class="color171756 svgShape"/><path d="m486.475 754.304-56.848-32.822a25.006 25.006 0 0 0-22.626 0l-56.848 32.821c-3.125 1.804-4.686 4.168-4.686 6.532s1.562 4.728 4.686 6.532l34.589 19.97v15.557h33.572a23.126 23.126 0 0 0 11.313-2.706l56.849-32.821c3.124-1.804 4.685-4.168 4.685-6.532s-1.562-4.728-4.686-6.531Z" style="mix-blend-mode:multiply" fill="url(#a)"/><path d="m1352.674 1000.862-41.23-23.804a18.136 18.136 0 0 0-16.41 0l-41.228 23.804c-2.266 1.308-3.399 3.023-3.399 4.737s1.133 3.429 3.399 4.737l25.086 14.483v11.283h24.348a16.773 16.773 0 0 0 8.205-1.962l41.229-23.804c2.265-1.308 3.398-3.022 3.398-4.737 0-1.714-1.133-3.429-3.398-4.737Z" style="mix-blend-mode:multiply" fill="url(#j)"/><path d="m911.103 1119.653-83.424-48.165a36.696 36.696 0 0 0-33.204 0l-78.35 48.165c-4.585 2.647-6.876 6.116-6.876 9.585 0 3.469 2.292 6.938 6.876 9.585l50.76 29.305v22.83h44.192a33.936 33.936 0 0 0 16.602-3.97l83.424-48.165c4.584-2.647 6.876-6.116 6.876-9.585 0-3.469-2.292-6.938-6.876-9.585Z" style="mix-blend-mode:multiply" fill="url(#k)"/><path fill="#7f7ff4" d="m753.012 1161.478-73.119-42.215c-4.018-2.32-6.027-5.36-6.027-8.401 0-3.04 2.009-6.081 6.027-8.401l73.119-42.215a32.163 32.163 0 0 1 29.102 0l73.119 42.215c4.018 2.32 6.027 5.36 6.027 8.401s-2.01 6.081-6.027 8.401l-73.12 42.215a32.162 32.162 0 0 1-29.1 0Z" class="color7f7ff4 svgShape"/><path fill="#4141aa" d="M767.563 1156.959a21.841 21.841 0 0 1-10.549-2.408l-73.12-42.215a1.517 1.517 0 1 1 0-2.947l73.118-42.215a24.317 24.317 0 0 1 21.102 0l73.12 42.215a1.517 1.517 0 1 1 0 2.947l-73.12 42.215a21.854 21.854 0 0 1-10.55 2.408Z" class="color4141aa svgShape"/><path fill="url(#b)" d="m855.233 1119.263-73.119 42.215a32.162 32.162 0 0 1-29.102 0l-73.119-42.215c-4.018-2.32-6.027-5.36-6.027-8.401v26c0 3.04 2.01 6.081 6.027 8.4l73.12 42.216a32.162 32.162 0 0 0 29.101 0l73.119-42.215c4.018-2.32 6.027-5.36 6.027-8.401v-26c0 3.04-2.01 6.081-6.027 8.401Z"/><path d="M792.081 1103.753a3.35 3.35 0 0 0-3.148-.503l-43.07 14.085c-1.112.363-1.501 1.177-.873 1.818a3.365 3.365 0 0 0 3.148.503l43.07-14.085c1.11-.365 1.502-1.177.873-1.818Zm-19.814-3.43c.233-.723-.595-1.42-1.851-1.553l-26.41-2.818a3.503 3.503 0 0 0-2.052.367c-.538.311-.778.755-.64 1.188l4.881 15.247c.232.723 1.44 1.201 2.694 1.068 1.251-.134 2.083-.829 1.851-1.552l-4.271-13.343 23.109 2.467c1.253.134 2.458-.347 2.689-1.072Zm24.25 25.945-4.883-15.246c-.23-.725-1.438-1.205-2.691-1.07-1.255.133-2.084.83-1.852 1.553l4.273 13.34-23.109-2.465c-1.254-.134-2.46.345-2.69 1.069-.234.724.595 1.42 1.85 1.555l26.41 2.818a3.509 3.509 0 0 0 2.054-.368c.539-.31.777-.754.637-1.186Z" style="mix-blend-mode:screen" fill="url(#c)"/><path fill="#7f7ff4" d="m373.429 779.868-56.849-32.822c-3.124-1.804-4.686-4.168-4.686-6.532 0-2.363 1.562-4.727 4.686-6.531l56.848-32.821a25.006 25.006 0 0 1 22.626 0l56.849 32.821c3.124 1.804 4.686 4.168 4.686 6.532s-1.562 4.728-4.686 6.531l-56.848 32.822a25.006 25.006 0 0 1-22.626 0Z" class="color7f7ff4 svgShape"/><path fill="#4141aa" d="M384.742 776.354a16.98 16.98 0 0 1-8.202-1.872l-56.85-32.822a1.18 1.18 0 1 1 0-2.291l56.849-32.821a18.905 18.905 0 0 1 16.406 0l56.848 32.821a1.18 1.18 0 1 1 0 2.291l-56.848 32.822a16.991 16.991 0 0 1-8.203 1.872Z" class="color4141aa svgShape"/><path fill="url(#l)" d="m452.903 747.046-56.848 32.822a25.006 25.006 0 0 1-22.626 0l-56.849-32.822c-3.124-1.804-4.686-4.168-4.686-6.532v20.215c0 2.364 1.562 4.728 4.686 6.532l56.849 32.821a25.007 25.007 0 0 0 22.626 0l56.848-32.821c3.124-1.804 4.686-4.168 4.686-6.532v-20.214c0 2.364-1.562 4.728-4.686 6.531Z"/><path style="mix-blend-mode:screen" fill="url(#m)" d="m402.729 747.76-12.125-7 12.124-7-5.196-3-12.124 7-12.124-7-5.196 3 12.124 7-12.124 7 5.196 3 12.124-7 12.124 7 5.197-3z"/><path fill="#6a6ae2" d="m1271.727 1012.17-36.005-20.788c-1.98-1.142-2.968-2.64-2.968-4.137 0-1.497.989-2.994 2.968-4.137l36.004-20.787a15.837 15.837 0 0 1 14.33 0l36.005 20.788c1.979 1.142 2.968 2.64 2.968 4.136 0 1.498-.99 2.995-2.968 4.137l-36.004 20.788a15.838 15.838 0 0 1-14.33 0Z" class="color6a6ae2 svgShape"/><path fill="url(#n)" d="m1322.061 991.382-36.004 20.788a15.838 15.838 0 0 1-14.33 0l-36.005-20.788c-1.98-1.142-2.968-2.64-2.968-4.137v22.22c0 1.496.989 2.994 2.968 4.136l36.005 20.788a15.838 15.838 0 0 0 14.33 0l36.004-20.788c1.979-1.142 2.968-2.64 2.968-4.137v-22.219c0 1.498-.99 2.995-2.968 4.137Z"/><ellipse cx="1278.891" cy="987.245" fill="#4141aa" rx="19.094" ry="11.024" class="color4141aa svgShape"/><ellipse cx="1278.891" cy="987.245" rx="19.094" ry="11.024" style="mix-blend-mode:screen" fill="url(#o)"/><g style="mix-blend-mode:screen" fill="#000000" class="color000 svgShape"><path fill="#12123f" d="m1300.349 839.118-4.61-2.66v-20.55l-5.505-1.22-.002-4.292 9.624 1.576.496.288ZM1300.349 789.695l-4.61-2.661v-20.549l-5.505-1.22-.002-4.293 9.624 1.577.496.287ZM1303.142 879.046q.004 5.57-1.994 7.36-1.991 1.808-5.842-.426a14.4 14.4 0 0 1-5.804-6.239 21.601 21.601 0 0 1-2.062-9.485v-4.937q.002-5.62 2.018-7.363 2.023-1.747 5.82.448a14.46 14.46 0 0 1 5.808 6.238 21.455 21.455 0 0 1 2.058 9.466Zm-4.609-8.088a14.656 14.656 0 0 0-.794-5.323 5.709 5.709 0 0 0-2.463-2.94c-1.085-.626-1.883-.604-2.402.061-.512.672-.788 2.02-.822 4.055l.003 6.53a15.318 15.318 0 0 0 .773 5.325 5.681 5.681 0 0 0 2.48 3.024c1.128.653 1.941.612 2.442-.115.5-.738.763-2.142.78-4.24Z" class="color12123f svgShape"/><path fill="#511a0d" d="m1043.536 375.185-4.61-2.66v-20.549l-5.505-1.22-.002-4.293 9.623 1.576.497.288ZM1046.329 316.266q.004 5.57-1.994 7.361-1.992 1.807-5.842-.426a14.4 14.4 0 0 1-5.804-6.24 21.6 21.6 0 0 1-2.062-9.485v-4.937q.001-5.619 2.018-7.363 2.023-1.747 5.82.449a14.46 14.46 0 0 1 5.808 6.237 21.453 21.453 0 0 1 2.058 9.467Zm-4.61-8.088a14.652 14.652 0 0 0-.793-5.322 5.711 5.711 0 0 0-2.463-2.94c-1.085-.627-1.883-.604-2.402.06-.512.673-.788 2.02-.822 4.055l.003 6.53a15.325 15.325 0 0 0 .773 5.326 5.68 5.68 0 0 0 2.48 3.024c1.128.653 1.94.611 2.441-.116.5-.737.764-2.142.781-4.239Z" class="color511a0d svgShape"/><path fill="#12123f" d="m1300.349 493.154-4.61-2.66v-20.549l-5.505-1.22-.002-4.293 9.624 1.576.496.288ZM1303.142 434.235q.004 5.57-1.994 7.36-1.991 1.808-5.842-.426a14.397 14.397 0 0 1-5.804-6.239 21.6 21.6 0 0 1-2.062-9.485v-4.937q.002-5.62 2.018-7.363 2.023-1.747 5.82.448a14.464 14.464 0 0 1 5.808 6.238 21.457 21.457 0 0 1 2.058 9.467Zm-4.609-8.088a14.654 14.654 0 0 0-.794-5.322 5.71 5.71 0 0 0-2.463-2.94c-1.085-.627-1.883-.605-2.402.06-.512.672-.788 2.02-.822 4.055l.003 6.53a15.316 15.316 0 0 0 .773 5.325 5.682 5.682 0 0 0 2.48 3.025c1.128.653 1.941.611 2.442-.116.5-.737.763-2.142.78-4.239ZM1303.142 582.506q.004 5.57-1.994 7.36-1.991 1.807-5.842-.426a14.401 14.401 0 0 1-5.804-6.24 21.599 21.599 0 0 1-2.062-9.484v-4.937q.002-5.62 2.018-7.364 2.023-1.747 5.82.449a14.461 14.461 0 0 1 5.808 6.238 21.455 21.455 0 0 1 2.058 9.466Zm-4.609-8.089a14.656 14.656 0 0 0-.794-5.322 5.709 5.709 0 0 0-2.463-2.94c-1.085-.627-1.883-.604-2.402.06-.512.673-.788 2.021-.822 4.055l.003 6.531a15.318 15.318 0 0 0 .773 5.325 5.681 5.681 0 0 0 2.48 3.024c1.128.653 1.941.611 2.442-.116.5-.737.763-2.142.78-4.239ZM1303.142 533.082q.004 5.57-1.994 7.36-1.991 1.808-5.842-.426a14.4 14.4 0 0 1-5.804-6.239 21.599 21.599 0 0 1-2.062-9.485v-4.937q.002-5.62 2.018-7.363 2.023-1.747 5.82.448a14.46 14.46 0 0 1 5.808 6.238 21.457 21.457 0 0 1 2.058 9.467Zm-4.609-8.088a14.655 14.655 0 0 0-.794-5.323 5.708 5.708 0 0 0-2.463-2.94c-1.085-.626-1.883-.604-2.402.061-.512.672-.788 2.02-.822 4.055l.003 6.53a15.319 15.319 0 0 0 .773 5.325 5.681 5.681 0 0 0 2.48 3.024c1.128.653 1.941.612 2.442-.115.5-.737.763-2.142.78-4.239ZM1257.546 913.253l-4.61-2.66v-20.55l-5.504-1.22-.002-4.292 9.624 1.576.496.288ZM1260.34 854.334q.004 5.57-1.994 7.36-1.992 1.808-5.842-.426a14.4 14.4 0 0 1-5.804-6.239 21.6 21.6 0 0 1-2.062-9.485v-4.937q.001-5.62 2.018-7.363 2.022-1.747 5.82.448a14.46 14.46 0 0 1 5.808 6.238 21.457 21.457 0 0 1 2.058 9.466Zm-4.61-8.088a14.647 14.647 0 0 0-.793-5.323 5.71 5.71 0 0 0-2.463-2.94c-1.085-.626-1.883-.604-2.402.061-.513.672-.788 2.02-.822 4.055l.003 6.53a15.318 15.318 0 0 0 .773 5.325 5.677 5.677 0 0 0 2.48 3.024c1.128.653 1.94.612 2.441-.115.5-.737.764-2.142.781-4.239ZM1343.15 666.136l-4.61-2.66.001-20.549-5.504-1.22-.003-4.293 9.624 1.576.496.288ZM1343.15 468.443l-4.61-2.661.001-20.549-5.504-1.22-.003-4.293 9.624 1.577.496.287ZM1257.546 419.019l-4.61-2.66v-20.55l-5.504-1.22-.002-4.292 9.624 1.576.496.288ZM1257.546 369.595l-4.61-2.66v-20.549l-5.504-1.22-.002-4.293 9.624 1.576.496.288ZM1345.944 409.524q.005 5.57-1.994 7.36-1.991 1.807-5.841-.426a14.402 14.402 0 0 1-5.805-6.24 21.604 21.604 0 0 1-2.062-9.484v-4.937q.002-5.62 2.018-7.363 2.023-1.748 5.821.448a14.459 14.459 0 0 1 5.807 6.238 21.455 21.455 0 0 1 2.058 9.466Zm-4.609-8.089a14.651 14.651 0 0 0-.794-5.322 5.712 5.712 0 0 0-2.463-2.94c-1.085-.626-1.882-.604-2.401.061-.513.672-.789 2.02-.823 4.054l.003 6.531a15.31 15.31 0 0 0 .773 5.325 5.681 5.681 0 0 0 2.48 3.024c1.128.653 1.941.612 2.442-.115.5-.738.763-2.142.78-4.24ZM1086.338 369.595l-4.61-2.66v-20.55l-5.505-1.22-.002-4.292 9.624 1.576.496.288ZM1086.338 320.171l-4.61-2.66v-20.549l-5.505-1.22-.002-4.293 9.624 1.577.496.287ZM1089.131 261.253q.005 5.57-1.994 7.36-1.991 1.807-5.841-.426a14.402 14.402 0 0 1-5.805-6.24 21.597 21.597 0 0 1-2.062-9.484v-4.937q.002-5.62 2.018-7.363 2.023-1.748 5.82.448a14.461 14.461 0 0 1 5.808 6.238 21.455 21.455 0 0 1 2.058 9.466Zm-4.609-8.089a14.648 14.648 0 0 0-.794-5.322 5.71 5.71 0 0 0-2.463-2.94c-1.085-.626-1.883-.604-2.401.061-.513.672-.79 2.02-.823 4.054l.003 6.531a15.319 15.319 0 0 0 .773 5.325 5.68 5.68 0 0 0 2.48 3.024c1.128.653 1.94.612 2.441-.115.5-.738.764-2.142.781-4.24ZM1089.131 409.523q.005 5.57-1.994 7.36-1.991 1.807-5.841-.426a14.4 14.4 0 0 1-5.805-6.239 21.599 21.599 0 0 1-2.062-9.485v-4.937q.002-5.62 2.018-7.363 2.023-1.747 5.82.448a14.461 14.461 0 0 1 5.808 6.238 21.457 21.457 0 0 1 2.058 9.466Zm-4.609-8.089a14.648 14.648 0 0 0-.794-5.322 5.71 5.71 0 0 0-2.463-2.94c-1.085-.626-1.883-.604-2.401.061-.513.672-.79 2.02-.823 4.055l.003 6.53a15.32 15.32 0 0 0 .773 5.325 5.68 5.68 0 0 0 2.48 3.024c1.128.653 1.94.612 2.441-.115.5-.737.764-2.142.781-4.24Z" class="color12123f svgShape"/><path fill="#511a0d" d="m1257.546 666.136-4.61-2.66v-20.55l-5.504-1.22-.002-4.292 9.624 1.576.496.288ZM1257.546 616.712l-4.61-2.66v-20.549l-5.504-1.22-.002-4.293 9.624 1.576.496.288Z" class="color511a0d svgShape"/><path fill="#12123f" d="m1000.733 241.275-4.61-2.66v-20.55l-5.504-1.22-.003-4.292 9.624 1.576.497.288Z" class="color12123f svgShape"/><path fill="#511a0d" d="m957.93 276.338-4.61-2.66.002-20.55-5.505-1.22-.003-4.292 9.624 1.576.497.288ZM1260.34 706.064q.004 5.57-1.994 7.36-1.992 1.807-5.842-.426a14.4 14.4 0 0 1-5.804-6.24 21.598 21.598 0 0 1-2.062-9.484v-4.937q.001-5.62 2.018-7.363 2.022-1.748 5.82.448a14.463 14.463 0 0 1 5.808 6.238 21.46 21.46 0 0 1 2.058 9.466Zm-4.61-8.088a14.647 14.647 0 0 0-.793-5.323 5.709 5.709 0 0 0-2.463-2.94c-1.085-.626-1.883-.604-2.402.061-.513.672-.788 2.02-.822 4.055l.003 6.53a15.316 15.316 0 0 0 .773 5.325 5.679 5.679 0 0 0 2.48 3.024c1.128.653 1.94.612 2.441-.115.5-.737.764-2.142.781-4.24Z" class="color511a0d svgShape"/><path fill="#12123f" d="m1343.15 962.676-4.61-2.66.001-20.549-5.504-1.22-.003-4.293 9.624 1.577.496.287ZM1345.944 903.758q.005 5.57-1.994 7.36-1.991 1.807-5.841-.426a14.403 14.403 0 0 1-5.805-6.239 21.606 21.606 0 0 1-2.062-9.485v-4.937q.002-5.62 2.018-7.363 2.023-1.747 5.821.448a14.46 14.46 0 0 1 5.807 6.238 21.455 21.455 0 0 1 2.058 9.466Zm-4.609-8.089a14.652 14.652 0 0 0-.794-5.322 5.71 5.71 0 0 0-2.463-2.94c-1.085-.626-1.882-.604-2.401.061-.513.672-.789 2.02-.823 4.055l.003 6.53a15.317 15.317 0 0 0 .773 5.325 5.679 5.679 0 0 0 2.48 3.024c1.128.653 1.941.612 2.442-.115.5-.738.763-2.142.78-4.24ZM1343.15 764.983l-4.61-2.66.001-20.55-5.504-1.22-.003-4.292 9.624 1.576.496.288ZM1345.944 706.064q.005 5.57-1.994 7.361-1.991 1.806-5.841-.426a14.402 14.402 0 0 1-5.805-6.24 21.604 21.604 0 0 1-2.062-9.485v-4.937q.002-5.62 2.018-7.363 2.023-1.747 5.821.449a14.46 14.46 0 0 1 5.807 6.237 21.458 21.458 0 0 1 2.058 9.467Zm-4.609-8.088a14.65 14.65 0 0 0-.794-5.323 5.71 5.71 0 0 0-2.463-2.94c-1.085-.626-1.882-.603-2.401.061-.513.672-.789 2.02-.823 4.055l.003 6.53a15.309 15.309 0 0 0 .773 5.325 5.679 5.679 0 0 0 2.48 3.025c1.128.652 1.941.611 2.442-.116.5-.737.763-2.142.78-4.239ZM1345.944 854.334q.005 5.57-1.994 7.361-1.991 1.807-5.841-.426a14.4 14.4 0 0 1-5.805-6.24 21.603 21.603 0 0 1-2.062-9.485v-4.936q.002-5.62 2.018-7.364 2.023-1.747 5.821.449a14.46 14.46 0 0 1 5.807 6.237 21.455 21.455 0 0 1 2.058 9.467Zm-4.609-8.088a14.652 14.652 0 0 0-.794-5.323 5.71 5.71 0 0 0-2.463-2.94c-1.085-.626-1.882-.603-2.401.062-.513.671-.789 2.02-.823 4.054l.003 6.53a15.317 15.317 0 0 0 .773 5.325 5.68 5.68 0 0 0 2.48 3.025c1.128.653 1.941.611 2.442-.116.5-.737.763-2.142.78-4.239ZM1345.944 804.91q.005 5.571-1.994 7.362-1.991 1.806-5.841-.427a14.4 14.4 0 0 1-5.805-6.239 21.603 21.603 0 0 1-2.062-9.485v-4.937q.002-5.62 2.018-7.363 2.023-1.747 5.821.448a14.46 14.46 0 0 1 5.807 6.238 21.457 21.457 0 0 1 2.058 9.466Zm-4.609-8.087a14.652 14.652 0 0 0-.794-5.323 5.71 5.71 0 0 0-2.463-2.94c-1.085-.626-1.882-.604-2.401.061-.513.672-.789 2.02-.823 4.055l.003 6.53a15.317 15.317 0 0 0 .773 5.325 5.68 5.68 0 0 0 2.48 3.024c1.128.653 1.941.612 2.442-.115.5-.737.763-2.142.78-4.24ZM743.92 616.71l-4.61-2.66V593.5l-5.504-1.22-.003-4.293 9.624 1.577.497.287ZM743.92 517.864l-4.61-2.66v-20.55l-5.504-1.22-.003-4.292 9.624 1.576.497.287ZM743.92 468.44l-4.61-2.66V445.23l-5.504-1.22-.003-4.293 9.624 1.577.497.287ZM746.714 409.522q.004 5.57-1.995 7.36-1.991 1.807-5.841-.426a14.4 14.4 0 0 1-5.804-6.24 21.599 21.599 0 0 1-2.063-9.484l.001-4.937q.001-5.62 2.017-7.363 2.023-1.748 5.821.448a14.462 14.462 0 0 1 5.807 6.238 21.453 21.453 0 0 1 2.058 9.466Zm-4.61-8.089a14.651 14.651 0 0 0-.794-5.322 5.708 5.708 0 0 0-2.462-2.94c-1.085-.626-1.883-.604-2.402.061-.513.672-.788 2.02-.823 4.054l.003 6.531a15.322 15.322 0 0 0 .774 5.325 5.68 5.68 0 0 0 2.48 3.024c1.128.653 1.94.612 2.44-.115.5-.738.764-2.142.782-4.24ZM746.714 557.792q.004 5.57-1.995 7.36-1.991 1.807-5.841-.426a14.398 14.398 0 0 1-5.804-6.239 21.6 21.6 0 0 1-2.063-9.485l.001-4.937q.001-5.62 2.017-7.363 2.023-1.747 5.821.448a14.461 14.461 0 0 1 5.807 6.238 21.453 21.453 0 0 1 2.058 9.466Zm-4.61-8.089a14.653 14.653 0 0 0-.794-5.322 5.71 5.71 0 0 0-2.462-2.94c-1.085-.626-1.883-.604-2.402.061-.513.672-.788 2.02-.823 4.055l.003 6.53a15.322 15.322 0 0 0 .774 5.325 5.678 5.678 0 0 0 2.48 3.024c1.128.653 1.94.612 2.44-.115.5-.738.764-2.142.782-4.24Z" class="color12123f svgShape"/><path fill="#511a0d" d="M746.714 135.663q.004 5.57-1.995 7.361-1.991 1.807-5.841-.426a14.4 14.4 0 0 1-5.804-6.24 21.599 21.599 0 0 1-2.063-9.485l.001-4.936q.001-5.62 2.017-7.363 2.023-1.748 5.821.448a14.464 14.464 0 0 1 5.807 6.238 21.453 21.453 0 0 1 2.058 9.466Zm-4.61-8.088a14.66 14.66 0 0 0-.794-5.322 5.71 5.71 0 0 0-2.462-2.94c-1.085-.626-1.883-.604-2.402.061-.513.672-.788 2.02-.823 4.054l.003 6.53a15.323 15.323 0 0 0 .774 5.326 5.68 5.68 0 0 0 2.48 3.024c1.128.653 1.94.611 2.44-.116.5-.737.764-2.141.782-4.239ZM701.118 591.999l-4.61-2.661V568.79l-5.504-1.22-.003-4.294 9.624 1.577.497.287ZM703.911 533.08q.004 5.57-1.994 7.36-1.991 1.807-5.842-.426a14.4 14.4 0 0 1-5.804-6.239 21.601 21.601 0 0 1-2.062-9.485v-4.937q.002-5.62 2.018-7.363 2.023-1.747 5.821.448a14.46 14.46 0 0 1 5.807 6.238 21.45 21.45 0 0 1 2.058 9.466Zm-4.609-8.088a14.644 14.644 0 0 0-.794-5.323 5.71 5.71 0 0 0-2.463-2.94c-1.085-.626-1.882-.604-2.401.061-.513.672-.789 2.02-.823 4.055l.003 6.53a15.323 15.323 0 0 0 .773 5.325 5.68 5.68 0 0 0 2.48 3.024c1.129.653 1.941.612 2.442-.115.5-.738.763-2.142.78-4.24ZM703.911 483.656q.004 5.57-1.994 7.361-1.991 1.807-5.842-.426a14.4 14.4 0 0 1-5.804-6.24 21.6 21.6 0 0 1-2.062-9.484v-4.937q.002-5.62 2.018-7.364 2.023-1.747 5.821.449a14.458 14.458 0 0 1 5.807 6.238 21.451 21.451 0 0 1 2.058 9.466Zm-4.609-8.088a14.643 14.643 0 0 0-.794-5.322 5.71 5.71 0 0 0-2.463-2.94c-1.085-.627-1.882-.604-2.401.06-.513.673-.789 2.02-.823 4.055l.003 6.53a15.323 15.323 0 0 0 .773 5.326 5.68 5.68 0 0 0 2.48 3.024c1.129.653 1.941.611 2.442-.116.5-.737.763-2.142.78-4.239Z" class="color511a0d svgShape"/><path fill="#12123f" d="m786.722 355.233-4.61-2.66v-20.55l-5.504-1.22-.002-4.292 9.623 1.576.497.287ZM786.722 404.656l-4.61-2.66v-20.549l-5.504-1.22-.002-4.293 9.623 1.576.497.288ZM786.722 256.386l-4.61-2.66v-20.55l-5.504-1.22-.002-4.292 9.623 1.576.497.288ZM786.722 206.963l-4.61-2.661v-20.549l-5.504-1.22-.002-4.293 9.623 1.577.497.287ZM701.118 157.539l-4.61-2.66v-20.55l-5.504-1.22-.003-4.292 9.624 1.576.497.288ZM703.911 197.467q.004 5.57-1.994 7.36-1.991 1.807-5.842-.426a14.397 14.397 0 0 1-5.804-6.239 21.602 21.602 0 0 1-2.062-9.485v-4.937q.002-5.62 2.018-7.363 2.023-1.747 5.821.448a14.462 14.462 0 0 1 5.807 6.238 21.451 21.451 0 0 1 2.058 9.466Zm-4.609-8.088a14.64 14.64 0 0 0-.794-5.323 5.71 5.71 0 0 0-2.463-2.94c-1.085-.626-1.882-.604-2.401.061-.513.672-.789 2.02-.823 4.055l.003 6.53a15.322 15.322 0 0 0 .773 5.325 5.68 5.68 0 0 0 2.48 3.024c1.129.653 1.941.612 2.442-.115.5-.737.763-2.142.78-4.24ZM789.516 296.314q.004 5.57-1.994 7.36-1.992 1.808-5.842-.426a14.4 14.4 0 0 1-5.804-6.239 21.598 21.598 0 0 1-2.062-9.485v-4.937q.002-5.62 2.018-7.363 2.022-1.747 5.82.448a14.462 14.462 0 0 1 5.808 6.238 21.457 21.457 0 0 1 2.058 9.466Zm-4.61-8.088a14.647 14.647 0 0 0-.794-5.323 5.709 5.709 0 0 0-2.462-2.94c-1.085-.626-1.883-.604-2.402.061-.513.672-.788 2.02-.823 4.055l.003 6.53a15.317 15.317 0 0 0 .774 5.325 5.68 5.68 0 0 0 2.48 3.024c1.128.653 1.94.612 2.441-.115.5-.737.764-2.142.78-4.24ZM701.118 256.385l-4.61-2.66v-20.548l-5.504-1.22-.003-4.293 9.624 1.576.497.287ZM786.722 503.503l-4.61-2.66v-20.55l-5.504-1.22-.002-4.292 9.623 1.576.497.288ZM789.516 444.584q.004 5.57-1.994 7.361-1.992 1.806-5.842-.426a14.402 14.402 0 0 1-5.804-6.24 21.598 21.598 0 0 1-2.062-9.485v-4.937q.002-5.62 2.018-7.363 2.022-1.747 5.82.449a14.461 14.461 0 0 1 5.808 6.237 21.457 21.457 0 0 1 2.058 9.467Zm-4.61-8.088a14.645 14.645 0 0 0-.794-5.323 5.71 5.71 0 0 0-2.462-2.94c-1.085-.626-1.883-.603-2.402.061-.513.672-.788 2.02-.823 4.055l.003 6.53a15.316 15.316 0 0 0 .774 5.325 5.679 5.679 0 0 0 2.48 3.025c1.128.652 1.94.611 2.441-.116.5-.737.764-2.142.78-4.239ZM829.525 330.521l-4.61-2.66v-20.549l-5.505-1.22-.002-4.293 9.624 1.576.496.288ZM832.318 233.76q.005 5.57-1.994 7.361-1.991 1.807-5.842-.426a14.402 14.402 0 0 1-5.804-6.24 21.597 21.597 0 0 1-2.062-9.484v-4.937q.001-5.62 2.018-7.363 2.022-1.748 5.82.448a14.462 14.462 0 0 1 5.808 6.238 21.455 21.455 0 0 1 2.058 9.466Zm-4.609-8.088a14.643 14.643 0 0 0-.794-5.322 5.71 5.71 0 0 0-2.463-2.94c-1.085-.626-1.883-.604-2.401.061-.514.672-.79 2.02-.823 4.054l.003 6.531a15.313 15.313 0 0 0 .773 5.325 5.676 5.676 0 0 0 2.48 3.024c1.128.653 1.94.612 2.441-.115.5-.738.764-2.142.781-4.24Z" class="color12123f svgShape"/><path fill="#511a0d" d="m1171.942 394.307-4.61-2.66v-20.55l-5.504-1.22-.003-4.292 9.624 1.576.497.288ZM1171.942 295.46l-4.61-2.66V272.25l-5.504-1.22-.003-4.293 9.624 1.576.497.288ZM1171.942 246.037l-4.61-2.661v-20.548l-5.504-1.22-.003-4.293 9.624 1.576.497.287ZM1174.736 335.388q.004 5.57-1.995 7.36-1.991 1.807-5.841-.426a14.4 14.4 0 0 1-5.804-6.239 21.602 21.602 0 0 1-2.063-9.485v-4.937q.002-5.62 2.018-7.363 2.023-1.747 5.821.448a14.464 14.464 0 0 1 5.807 6.238 21.454 21.454 0 0 1 2.058 9.466Zm-4.61-8.088a14.659 14.659 0 0 0-.794-5.323 5.71 5.71 0 0 0-2.463-2.94c-1.085-.626-1.882-.604-2.401.062-.513.671-.788 2.02-.823 4.054l.003 6.53a15.318 15.318 0 0 0 .774 5.325 5.681 5.681 0 0 0 2.48 3.025q1.692.978 2.44-.116c.5-.737.764-2.142.782-4.239Z" class="color511a0d svgShape"/><path fill="#12123f" d="m1214.744 493.154-4.61-2.66v-20.55l-5.504-1.22-.002-4.292 9.623 1.576.497.287Z" class="color12123f svgShape"/></g><path d="m1435.849 670.249-21.874-12.63c-6.522-3.766-22.527-6.844-35.575-6.844H810.767c-13.045 0-286.272 170.937-286.272 170.937-6.52 3.769-6.52 9.927 0 13.694l398.353 229.989a24.308 24.308 0 0 0 11.934 2.823h10.359l280.441-161.912 11.576-6.684h198.69Z" style="mix-blend-mode:multiply" fill="url(#p)"/><path fill="#423eaf" d="M1223.436 874.571c0 7.842-5.56 11.048-12.35 7.129L796.35 642.252c-6.794-3.921-12.346-13.543-12.346-21.384v-312.82c0-7.842 5.552-11.049 12.346-7.13l414.737 239.45c6.79 3.92 12.349 13.544 12.349 21.384Z" class="color423eaf svgShape"/><path fill="url(#q)" d="m1220.408 534.987-414.74-239.449c-3.44-1.984-6.556-2.136-8.802-.79v-.008l-8.87 5.145.025.004c2.198-1.066 5.12-.822 8.329 1.03l414.737 239.448c6.79 3.92 12.349 13.545 12.349 21.385v312.82c0 3.89-1.374 6.64-3.582 7.944v.003l8.864-5.145-.024-.003c2.483-1.176 4.06-4.017 4.06-8.18v-312.82c0-7.841-5.559-17.463-12.346-21.384Z"/><path fill="url(#r)" d="M1211.087 862.535 796.35 623.087V315.175l414.737 239.449v307.911z"/><path fill="#7f7ff4" d="M929.85 1049.49c-6.788 3.923-17.901 3.923-24.692 0l-414.74-239.448c-6.788-3.919-6.788-10.334 0-14.257l282.692-163.21c6.787-3.92 17.9-3.92 24.691 0l414.74 239.45c6.79 3.92 6.79 10.332 0 14.254Z" class="color7f7ff4 svgShape"/><path fill="#6a6ae2" d="m798.236 666.533-20.281-11.711 10.14-5.854 20.282 11.709-10.141 5.856zM832.396 686.258l-20.284-11.714 10.141-5.855 20.284 11.71-10.141 5.859zM866.556 705.977l-20.281-11.711 10.14-5.856 20.285 11.714-10.144 5.853zM900.713 725.701l-20.278-11.708 10.144-5.858 20.278 11.711-10.144 5.855zM934.876 745.423l-20.281-11.711 10.143-5.852 20.282 11.71-10.144 5.853zM969.039 765.148l-20.281-11.712 10.137-5.855 20.288 11.708-10.144 5.859zM1003.199 784.872l-20.278-11.711 10.141-5.858 20.278 11.71-10.141 5.859zM1037.362 804.591l-20.284-11.708 10.144-5.859 20.281 11.714-10.141 5.853zM1071.522 824.315l-20.281-11.708 10.141-5.858 20.284 11.711-10.144 5.855zM1105.682 844.037l-20.281-11.711 10.144-5.853 20.281 11.708-10.144 5.856zM1139.845 863.761l-20.281-11.711 10.141-5.855 20.284 11.711-10.144 5.855zM1174.008 883.486l-20.287-11.714 10.144-5.856 20.284 11.715-10.141 5.855zM780.257 695.598l-36.465-21.054 20.281-11.71 36.466 21.056-20.282 11.708zM761.392 722.514l-50.344-29.068 20.288-11.708 50.341 29.068-20.285 11.708zM741.108 750.249l-64.219-37.078 20.281-11.708 64.216 37.079-20.278 11.707zM672.015 758.091 635.55 737.04l27.46-15.855 36.465 21.051-27.46 15.855zM722.359 787.159l-36.465-21.054 27.457-15.856 36.468 21.054-27.46 15.856zM772.703 816.223l-36.465-21.051 27.46-15.855 36.465 21.054-27.46 15.852zM946.284 916.445l-36.463-21.061 27.457-15.849 36.472 21.054-27.466 15.856zM1031.604 965.703l-71.523-41.298 27.46-15.852 71.522 41.295-27.459 15.855zM896.024 887.424l-109.439-63.187 27.457-15.852 109.445 63.187-27.463 15.852zM823.979 720.841l-29.843-17.229 20.278-11.711 29.846 17.229-20.281 11.711zM805.115 747.756l-29.847-17.228 20.285-11.714 29.843 17.228-20.281 11.714zM785.765 774.954l-29.843-17.229 20.284-11.711 29.844 17.232-20.285 11.708zM829.487 800.193l-29.843-17.229 20.281-11.711 29.844 17.232-20.282 11.708zM873.203 825.435l-29.84-17.229 20.281-11.707 29.843 17.228-20.284 11.708zM916.928 850.68l-29.843-17.228 20.281-11.714 29.84 17.231-20.278 11.711zM960.647 875.923l-29.84-17.232 20.281-11.711 29.84 17.232-20.281 11.711zM1004.366 901.162l-29.841-17.229 20.282-11.714 29.843 17.232-20.284 11.711zM1073.877 941.296l-55.632-32.124 20.281-11.707 55.633 32.12-20.282 11.711zM848.836 772.995l-29.843-17.225 20.285-11.711 29.84 17.229-20.282 11.707zM892.556 798.241l-29.844-17.232 20.284-11.711 29.844 17.232-20.284 11.711zM936.271 823.483l-29.84-17.228 20.284-11.715 29.844 17.232-20.288 11.711zM979.996 848.725l-29.843-17.228 20.285-11.714 29.84 17.228-20.282 11.714zM1023.718 873.968l-29.846-17.232 20.287-11.711 29.844 17.232-20.285 11.711zM1107.102 922.113l-69.508-40.135 20.284-11.711 69.512 40.131-20.288 11.715zM867.698 746.083l-29.844-17.229 20.285-11.711 29.84 17.232-20.281 11.708zM911.42 771.322l-29.843-17.229 20.281-11.707 29.843 17.225-20.281 11.711zM955.136 796.564l-29.837-17.228 20.277-11.705 29.844 17.226-20.284 11.707zM998.858 821.81l-29.844-17.232 20.281-11.711 29.844 17.232-20.281 11.711zM1042.579 847.049l-29.843-17.229 20.281-11.708 29.847 17.226-20.285 11.711zM1086.299 872.291l-29.841-17.228 20.282-11.708 29.843 17.228-20.284 11.708zM1139.845 903.204l-39.665-22.899 20.281-11.711 39.666 22.903-20.282 11.707z" class="color6a6ae2 svgShape"/><path fill="#6b67e9" d="M1159.195 852.591 831.461 663.372l9.847-5.682 327.73 189.218-9.843 5.683z" class="color6b67e9 svgShape"/><path fill="#6a6ae2" d="m896.018 911.875-167.237-96.559-103.922 60 167.237 96.555 103.922-59.996z" class="color6a6ae2 svgShape"/><path fill="url(#s)" d="M1212.541 886.28 929.85 1049.49c-5.393 3.116-13.5 3.748-20.02 1.915-.046-.012-4.05-1.554-4.672-1.914l-414.74-239.449a14.4 14.4 0 0 1-1.31-.857c-.022-.015-.041-.03-.063-.047-.11-.08-.203-.165-.307-.247a10.36 10.36 0 0 1-.684-.575c-.11-.097-.213-.2-.317-.3a9.442 9.442 0 0 1-.71-.776c-.028-.032-.06-.066-.084-.097-.016-.022-.035-.044-.05-.063a8.775 8.775 0 0 1-.641-.954 6.406 6.406 0 0 1-.905-2.965h-.021v5.977h.047c-.038 2.61 1.62 5.22 5.045 7.201l414.74 239.448c9.897 4.908 24.035 3.95 28.245 3.031 4.207-.923 7.988-1.977 12.402-2.94L1212.54 901.88c3.434-1.986 5.127-4.604 5.083-7.219v-15.433c-.029 2.555-1.724 5.108-5.083 7.05Z"/><path style="mix-blend-mode:multiply" fill="url(#t)" d="m565.243 793.337-71.046.267 112.44-64.918 71.045-.266-112.439 64.917z"/><path d="M1154.673 880.356 773.268 660.152c-9.204-5.314-16.666-18.238-16.666-28.866V361.86c0-10.628 7.462-14.936 16.666-9.622l381.405 220.205c9.204 5.314 16.666 18.238 16.666 28.866v269.424c0 10.628-7.462 14.936-16.666 9.622Z" style="mix-blend-mode:screen" fill="#34318f" stroke="#fb944b" stroke-miterlimit="10" stroke-width="2" class="color34318f svgShape colorStrokefb944b svgStroke"/><path style="mix-blend-mode:screen" fill="url(#d)" d="m1008.011 1057.164-36.825-21.261 20.178-16.846 36.621 21.261-19.974 16.846z"/><path fill="#34318f" d="m986.864 1021.655-15.678 9.052v5.196l20.178-11.65v-5.196l-4.5 2.598z" class="color34318f svgShape"/><path d="m986.864 1021.655 4.5 2.598v-5.196l-4.5 2.598z" style="mix-blend-mode:screen" fill="#471c0f" class="color471c0f svgShape"/><path style="mix-blend-mode:screen" fill="url(#e)" d="M971.186 1030.707v5.196l20.178-11.65-4.5-2.598-15.678 9.052z"/><path style="mix-blend-mode:screen" fill="url(#u)" d="m1048.368 1033.864-36.825-21.261 20.178-16.847 36.621 21.262-19.974 16.846z"/><path fill="#34318f" d="m1027.221 998.355-15.678 9.052v5.196l20.178-11.65v-5.197l-4.5 2.599z" class="color34318f svgShape"/><path d="m1027.221 998.355 4.5 2.598v-5.197l-4.5 2.599z" style="mix-blend-mode:screen" fill="#471c0f" class="color471c0f svgShape"/><path style="mix-blend-mode:screen" fill="url(#v)" d="M1011.543 1007.407v5.196l20.178-11.65-4.5-2.598-15.678 9.052z"/><g style="mix-blend-mode:screen" fill="#000000" class="color000 svgShape"><path fill="#34318f" d="m809.843 412.26-18.772-10.838v-6.736l18.772 10.837v6.737zM984.888 513.339l-159.943-92.36v-6.736l159.943 92.36v6.736zM853.003 455.524l-61.932-35.757v-6.736l61.932 35.756v6.737zM984.888 531.684l-116.782-67.441v-6.736l116.782 67.441v6.736zM819.381 454.458l-28.31-16.345v-6.737l28.31 16.345v6.737z" class="color34318f svgShape"/><path fill="#c85a2b" d="m984.888 550.03-150.405-86.853v-6.737l150.405 86.853v6.737z" class="colorc85a2b svgShape"/><path fill="#4141aa" d="m811.36 468.171-20.289-11.713v-6.737l20.289 11.714v6.736zM984.888 568.375l-158.426-91.484v-6.737l158.426 91.484v6.737zM819.381 491.148l-28.31-16.345v-6.737l28.31 16.345v6.737zM976.448 581.847l-150.404-86.853v-6.737l150.404 86.854v6.736z" class="color4141aa svgShape"/><path fill="#c85a2b" d="m819.381 509.493-28.31-16.345v-6.737l28.31 16.345v6.737z" class="colorc85a2b svgShape"/><path fill="#4141aa" d="m984.888 605.065-150.405-86.853v-6.737l150.405 86.853v6.737z" class="color4141aa svgShape"/><path fill="#5555c6" d="m828.54 533.126-28.31-16.345v-6.737l28.31 16.345v6.737z" class="color5555c6 svgShape"/><path fill="#fb944b" d="m984.888 623.41-150.405-86.853v-6.737l150.405 86.853v6.737z" class="colorfb944b svgShape"/><path fill="#5555c6" d="m809.389 540.414-18.318-10.576v-6.737l18.318 10.576v6.737zM975.157 636.137 814.76 543.515v-6.737L975.157 629.4v6.737zM819.381 564.528l-28.31-16.345v-6.736l28.31 16.345v6.736zM903.144 612.905l-68.661-39.658v-6.736l68.661 39.658v6.736z" class="color5555c6 svgShape"/><path fill="#ffaf6d" d="m819.381 582.873-28.31-16.344v-6.737l28.31 16.345v6.736z" class="colorffaf6d svgShape"/><path fill="#6a6ae2" d="m984.888 678.445-150.405-86.852v-6.737l150.405 86.853v6.736zM811.36 596.414l-20.289-11.54v-6.737l20.289 11.541v6.736zM951.614 677.553l-125.152-72.419v-6.737l125.152 72.419v6.737zM819.381 619.563l-28.31-16.344v-6.737l28.31 16.345v6.736z" class="color6a6ae2 svgShape"/><path fill="#ffaf6d" d="m984.888 715.136-150.405-86.853v-6.737l150.405 86.853v6.737z" class="colorffaf6d svgShape"/><path fill="#6a6ae2" d="m819.381 637.909-28.31-16.345v-6.737l28.31 16.345v6.737zM962.994 720.841l-128.511-74.213v-6.737l128.511 74.213v6.737z" class="color6a6ae2 svgShape"/><path fill="#ffaf6d" d="m839.518 667.847-48.447-27.938v-6.737l48.447 27.939v6.736z" class="colorffaf6d svgShape"/><path fill="#6a6ae2" d="m915.017 711.486-60.397-34.919v-6.737l60.397 34.919v6.737z" class="color6a6ae2 svgShape"/></g><path d="m1137.524 710.714-119.281-68.867c-3.916-2.26-7.09-8.326-7.09-13.548v-94.526c0-5.221 3.174-7.621 7.09-5.36l119.281 68.867c3.916 2.26 7.09 8.326 7.09 13.548v94.526c0 5.221-3.174 7.621-7.09 5.36Z" style="mix-blend-mode:screen" fill="#34318f" class="color34318f svgShape"/><path d="m1137.524 848.005-119.281-68.867c-3.916-2.261-7.09-8.327-7.09-13.549v-94.526c0-5.221 3.174-7.621 7.09-5.36l119.281 68.867c3.916 2.261 7.09 8.327 7.09 13.548v94.526c0 5.222-3.174 7.622-7.09 5.36Z" style="mix-blend-mode:screen" fill="#e57139" class="colore57139 svgShape"/><path d="M1021.283 554.01c0-7.294 5.121-10.251 11.439-6.604 6.317 3.648 11.439 12.519 11.439 19.813s-5.122 10.252-11.44 6.605c-6.317-3.648-11.438-12.518-11.438-19.813Z" style="mix-blend-mode:screen" fill="#ffc16b" class="colorffc16b svgShape"/><path d="m1061.47 587.684-37.582 57.422 85.113 49.14-37.583-100.819c-2.154-5.777-7.794-9.033-9.947-5.743Z" style="mix-blend-mode:screen" fill="#c85a2b" class="colorc85a2b svgShape"/><path d="m1134.334 708.873-21.967-58.93c-2.154-5.777-7.794-9.033-9.947-5.743l-21.968 33.564ZM1091.129 736.613l-3.725-4.033-22.515 46.375 3.724 4.034Zm3.019 49.879 18.194-8.831-18.194-29.84-2.754 1.866 14.944 24.508-14.944 7.253Zm-34.575-19.962 2.755-1.863-14.944-24.51 14.944-7.252-2.755-5.045-18.193 8.83Z" style="mix-blend-mode:screen" fill="#fb944b" class="colorfb944b svgShape"/><path d="m1366.474 684.321-86.52-49.952c-6.208-3.584-11.24-13.199-11.24-21.475v-95.89c0-8.276 5.032-12.08 11.24-8.497l86.52 49.953c6.207 3.584 11.24 13.199 11.24 21.475v95.89c0 8.276-5.032 12.08-11.24 8.496Z" style="mix-blend-mode:screen" fill="#511a0d" stroke="#c85a2b" stroke-miterlimit="10" stroke-width="2" class="color511a0d svgShape colorStrokec85a2b svgStroke"/><path d="m1376.094 793.406-46.8-27.02c-3.358-1.938-6.08-7.14-6.08-11.616v-51.868c0-4.477 2.722-6.535 6.08-4.596l46.8 27.02c3.358 1.939 6.08 7.14 6.08 11.616v51.868c0 4.477-2.722 6.535-6.08 4.596ZM653.739 500.36l-106.032 61.217c-7.607 4.392-13.774-.27-13.774-10.413V433.651c0-10.143 6.167-21.926 13.774-26.318l106.032-61.218c7.607-4.392 13.774.27 13.774 10.413v117.514c0 10.142-6.167 21.925-13.774 26.317Z" style="mix-blend-mode:screen" fill="#1e1c6b" stroke="#6a6ae2" stroke-miterlimit="10" stroke-width="2" class="color1e1c6b svgShape colorStroke6a6ae2 svgStroke"/><path d="m506.01 626.895-60.12 34.711c-4.314 2.49-7.81-.153-7.81-5.904v-66.63c0-5.752 3.496-12.433 7.81-14.923l60.12-34.711c4.314-2.49 7.81.153 7.81 5.904v66.631c0 5.751-3.496 12.432-7.81 14.922Z" style="mix-blend-mode:screen" fill="#511a0d" stroke="#c85a2b" stroke-miterlimit="10" stroke-width="2" class="color511a0d svgShape colorStrokec85a2b svgStroke"/><path d="m318.626 1025.154-95.773-55.295c-6.87-3.967-6.01-10.896 1.925-15.477l91.923-53.072c7.934-4.58 19.936-5.078 26.807-1.111l95.774 55.295c6.87 3.967 6.01 10.896-1.925 15.477l-91.923 53.072c-7.934 4.58-19.936 5.078-26.808 1.111Z" style="mix-blend-mode:screen" fill="#1e1c6b" stroke="#6a6ae2" stroke-miterlimit="10" stroke-width="2" class="color1e1c6b svgShape colorStroke6a6ae2 svgStroke"/><path d="M1357.076 751.117c2.467-.457 4.133-2.903 4.132-6.822.002-5.951-3.81-12.971-8.514-15.689-4.697-2.711-8.514-.084-8.511 5.864a20.41 20.41 0 0 0 4.133 11.585c-7.195-1.355-11.774 3.16-11.77 9 1.228.7 16.15 9.32 16.15 9.32l16.154 9.331c.002-5.837-4.578-15.64-11.774-22.589Z" style="mix-blend-mode:multiply" fill="#a7adce" class="colora7adce svgShape"/><path d="m299.513 962.676.002 19.363h33.537c18.524.001 33.54-8.668 33.536-19.362.003-10.697-15.02-19.363-33.538-19.364-18.521.007-33.538 8.67-33.537 19.363Zm22.35-6.455c6.18-3.569 16.199-3.573 22.377-.006 6.176 3.568 6.18 9.353-.003 12.922-6.178 3.566-16.197 3.564-22.377 0-6.178-3.568-6.174-9.35.002-12.916Z" style="mix-blend-mode:multiply" fill="#d3d8f2" class="colord3d8f2 svgShape"/><g style="mix-blend-mode:screen" fill="#000000" class="color000 svgShape"><ellipse cx="474.497" cy="600.522" fill="none" stroke="#ffaf6d" stroke-linecap="round" stroke-linejoin="round" stroke-width="2" rx="20.9" ry="12.067" transform="rotate(-59.999 474.497 600.522)" class="colorStrokeffaf6d svgStroke"/><path fill="#ffaf6d" d="M494.164 612.876a1 1 0 0 1-.5-.134l-9.217-5.32a1 1 0 0 1 1-1.732l9.217 5.32a1 1 0 0 1-.5 1.866Z" class="colorffaf6d svgShape"/></g><path d="M1323.767 593.512a13.328 13.328 0 0 1-6.04-10.463c0-3.848 2.71-5.412 6.042-3.488a13.372 13.372 0 0 1 6.042 10.465l5.483 3.163c-.001-6.246-3.75-13.652-8.783-17.976l-.003-5.003-5.484-3.169.003 5.002c-5.03-1.479-8.784 1.591-8.783 7.84a25.481 25.481 0 0 0 11.524 19.96 13.39 13.39 0 0 1 6.045 10.471c0 3.844-2.712 5.41-6.043 3.489a13.386 13.386 0 0 1-6.043-10.472l-5.482-3.163c.004 6.255 3.747 13.65 8.782 17.984l-.003 4.604 5.488 3.171-.007-4.617c5.036 1.483 8.792-1.584 8.792-7.83 0-7.336-5.175-16.298-11.53-19.968Z" style="mix-blend-mode:screen" fill="#ffaf6d" class="colorffaf6d svgShape"/><path d="M597.813 427.281c4.014 2.318 7.904 3.823 13.488.596 5.252-3.031 9.187-8.719 13.485-16.168v34.333c0 19.679-16.91 47.354-26.973 57.14-10.067 1.831-26.978-6.313-26.974-25.997l-.002-34.33c4.015 2.317 7.908 3.818 13.491.597 5.248-3.029 9.18-8.715 13.485-16.17Z" style="mix-blend-mode:multiply" fill="#c6cbe7" class="colorc6cbe7 svgShape"/><path style="mix-blend-mode:multiply" fill="url(#f)" d="M567.176 1069.197h88.8v16.323h-88.8z"/><path style="mix-blend-mode:multiply" fill="url(#w)" d="M522.491 1053.705h91.327v16.785h-91.327z"/><path fill="url(#g)" d="M512.851 1065.315c0-13.184 8.359-13.57 8.359-13.57s4.521 0 11.877-3.051c7.253-3.012 17.477-1.848 11.762 8.691a2.761 2.761 0 0 1-.194.389 5.159 5.159 0 0 1-1.852 1.627l-18.263 10.715c-2.787 1.586-11.626-2.088-11.689-4.801Z"/><path fill="#121047" d="M512.902 1064.131c.155 2.707 8.88 6.313 11.638 4.733l18.263-10.702a17.435 17.435 0 0 0 2.572-1.878c-.165.361-.313.709-.526 1.101a2.761 2.761 0 0 1-.194.389 5.159 5.159 0 0 1-1.852 1.627l-18.263 10.715c-2.606 1.486-10.529-1.643-11.575-4.282a2.937 2.937 0 0 1-.08-.53 8.337 8.337 0 0 1 .017-1.173Z" class="color121047 svgShape"/><path fill="#ffffff" d="M516.25 1050.012c2.154 0 9.726 1.926 9.726 1.926a4.194 4.194 0 0 0 .68 1.965c.075.078.14.164.213.256 1.492 1.039 3.012 2.68-.534 4.904a4.92 4.92 0 0 1-6.385-.451 5.774 5.774 0 0 0-2.06-2.338 5.137 5.137 0 0 0-1.974-.832 1.306 1.306 0 0 0-.016-.182s-.552-5.248.35-5.248Z" class="colorfff svgShape"/><path fill="#131147" d="M516.112 921.067c8.26.152 28.897.523 37.148.666-3.07 24.82-9.256 47.36-13.382 71.402-4.434 23.36-9.428 39.777-13.788 59.217-1.596 3.617-8.9 2.248-10.378-1.234-1.154-17.907-2.486-39.715 2.823-60.375-.886-22.264-2.942-47.188-2.423-69.676Z" class="color131147 svgShape"/><path fill="url(#x)" d="M554.068 1080.008c0-13.185 8.354-13.568 8.354-13.568s4.525 0 11.88-3.049c7.25-3.016 17.476-1.852 11.763 8.686a3.871 3.871 0 0 1-.195.392 5.155 5.155 0 0 1-1.859 1.625l-18.255 10.713c-2.787 1.586-11.626-2.082-11.688-4.799Z"/><path fill="#121047" d="M554.114 1078.823c.158 2.707 8.882 6.314 11.642 4.734l18.255-10.7a17.688 17.688 0 0 0 2.578-1.88c-.172.361-.31.709-.524 1.1a3.871 3.871 0 0 1-.195.392 5.155 5.155 0 0 1-1.859 1.625l-18.255 10.713c-2.605 1.488-10.53-1.643-11.574-4.271a2.387 2.387 0 0 1-.08-.54 8.86 8.86 0 0 1 .012-1.173Z" class="color121047 svgShape"/><path fill="#ffffff" d="M557.466 1064.702c2.147 0 9.727 1.927 9.727 1.927a4.304 4.304 0 0 0 .672 1.967c.077.084.141.166.21.254 1.499 1.039 3.024 2.68-.53 4.906a4.922 4.922 0 0 1-6.382-.447 5.876 5.876 0 0 0-2.057-2.34 5.243 5.243 0 0 0-1.977-.834 1.399 1.399 0 0 0-.02-.176s-.547-5.257.357-5.257Z" class="colorfff svgShape"/><path fill="url(#y)" d="M541.9 970.55c-2.258-10.667-28.292-11.993-26.584-53.946 8.17-1.203 49.379 18.129 57.545 16.928 1.02 24.982-1.393 48.238-1.546 72.62-.555 23.768-2.803 40.782-3.929 60.675-.982 3.835-8.408 3.675-10.44.484-4.062-17.479-8.937-38.785-7.072-60.03-2.432-11.767-5.33-24.238-7.975-36.732Z"/><path fill="#4141aa" d="M531.914 839.317c-18.96 13.092-27.996 29.918-28.94 38.031-1.49 12.816 4.4 21.4 13.236 42.201 0 0 .324-13.789.426-18.955-.952-3.17-3.745-12.998-2.967-18.072.683-4.469 13.794-14.291 15.433-19.096 4.02-11.783-3.384-15.447 2.812-24.109Z" class="color4141aa svgShape"/><path fill="#fcd1a9" d="m625.27 816.102-.054.051c1.409-2.817 2.822-4.162 4.147-4.1.573-.558 1.17-1.137 1.745-1.687 3.37-3.23 9.458-4.4 9.926-2.996.282.847-2.823 1.457-4.942 2.738a7.436 7.436 0 0 0-2.456 2.457s5.02 3.125 2.831 7.502c-1.779 3.559-2.998 1.193-2.647.492-3.16 2.924-3.708-.013-5.803 2.611l-4.44-5.369s.675-.681 1.692-1.699Z" class="colorfcd1a9 svgShape"/><path fill="url(#h)" d="M622.906 817.827c-1.776.867-20.161 17.299-26.895 22.162-6.975 2.199-17.14 5.52-22.436 6.826-3.952.35-6.136.307-13.298-3.502-6.968-3.703-14.809-4.879-17.745-5.475-24.196-4.941-29.664 40.028-27.638 86 3.408 11.307 8.605 13.42 18.878 17.49 8.59 3.403 34.785 8.526 41.577-3.199-2.339-22.496-6.693-47.519-2.361-69.15 10.337-5.223 22.946-7.93 32.073-15.53 13.95-11.619 20.432-25.63 23.032-29.33 1.01-1.437-1.043-6.863-5.187-6.292Z"/><path d="M605.061 853.45c-2.327 1.777-24.186 11.468-33.634 13.249-9.445 1.781-5.43 2.385-4.648 7.669 1.071 7.238 2.22 37.435 7.083 50.619-2.2-18.799-4.377-38.512-.874-56.008 10.337-5.223 22.946-7.93 32.073-15.53Z" style="mix-blend-mode:screen" fill="url(#z)"/><path fill="#fcd1a9" d="M533.966 838.481c5.41-3.912 4.607-6.469 3.798-11.793a26.46 26.46 0 0 1-1.634-9.19c0-11.859 7.548-22.103 16.805-21.466 18.649 1.28 15.333 11.092 15.333 22.949 0 10.982-4.983 18.541-13.316 19.816 0 1.805 1.738 2.918 4.008 3.852-6.09 3.647-15.225 4.242-19.293 2.658-3.828-1.49-8.242-4.201-5.7-6.826Z" class="colorfcd1a9 svgShape"/><path fill="#20196f" d="M538.585 795.262c3.248-3.13 7.027-.129 8.915-1.109.325-.157.665-.317 1.02-.49.004.003.004-.002.005-.004 2.474-1.477 1.29-2.56 3.576-3.924 2.262-1.35 4.454.525 5.924.035l-.006.008c3.48-1.09 6.62-1.543 7.991-.268a9.725 9.725 0 0 1 1.79 2.352l-.002-.002c1.172 1.959 5.224-.56 4.97 3.678-.234 3.976-1.724 5.302-2.35 11.386-.027.352-.053.705-.093 1.051-.004.072-.015.135-.019.201-.004 0-.004-.004-.006-.015-.472 3.94-1.739 4.986-3.74 6.99-1.946 1.945-1.882.103-1.978-.666-.184-1.445-.595-2.737-1.457-2.682-.875.059-2.613.5-3.505 4.317-.643 2.758 1.216 2.152 1.048 2.91-2.499 11.218-6.685 10.367-11.45 11.715a14.539 14.539 0 0 1-11.225-1.12c-1.15-4.296-1.604-6.818-2.158-8.83a34.81 34.81 0 0 1 .036-12.187c0-.014-.01-.006-.01-.018 1.326-5.238-.451-10.263 2.724-13.328Z" class="color20196f svgShape"/><path fill="url(#A)" d="M558.96 842.649c0-.639-1.132-2.756-3.112-1.853-6.137 2.794-13.915 2.753-18.851.013-1.218-.676-2.269-1.84-1.884-3.246a1.92 1.92 0 0 0-2.069 1.48c-.198.588-.677 2.541 1.896 4.368 2.744 1.949 11.513 6.281 24.02-.762Z"/><path d="M622.906 817.827c-1.776.867-20.161 17.299-26.895 22.162-6.975 2.199-17.14 5.52-22.436 6.826-3.952.35-6.136.307-13.298-3.502-.597-.317-.71-.383-1.317-.664 2.033 1.688 6.24 4.872 11.743 5.57 7.375.938 22.187-4.687 26.687-7.185 4.5-2.499 22.112-19.67 24.459-21.085 3.129-1.886 5.506 2.161 6.447 3.627.371-1.918-1.656-6.263-5.39-5.75Z" style="mix-blend-mode:screen" fill="url(#B)"/><path d="m567.798 791.86.002.002a9.723 9.723 0 0 0-1.79-2.352c-1.372-1.275-4.511-.822-7.99.268l.005-.008c-1.13.377-2.688-.632-4.375-.51 3.468 2.069 5.715 1.802 9.928 1.397 1.928-.185 2.312 3.75 3.875 3.75 1.562 0 3.25 2 2.5 5.125-.75 3.123-.995 11.298-.996 12.914a9.733 9.733 0 0 0 1.343-4.285c.002.011.002.015.006.015.004-.066.015-.129.019-.2.04-.347.066-.7.093-1.052.626-6.084 2.116-7.41 2.35-11.386.254-4.239-3.798-1.72-4.97-3.678Z" style="mix-blend-mode:screen" fill="url(#C)"/><ellipse cx="644.182" cy="807.338" rx="11.967" ry="20.727" transform="rotate(-30 644.182 807.338)" style="mix-blend-mode:screen" fill="url(#D)"/><ellipse cx="644.182" cy="807.338" fill="none" stroke-miterlimit="10" rx="20.517" ry="35.536" transform="rotate(-30 644.182 807.338)" style="mix-blend-mode:screen" stroke="#511a0d" class="colorStroke511a0d svgStroke"/><path style="mix-blend-mode:multiply" fill="url(#i)" d="M410.939 607.72h-52.894l33.065 19.682-33.065 19.093h52.894l33.567-19.381-33.567-19.394z"/><path fill="#1e1c6b" d="m358.045 646.495 33.065-19.093v-38.768l-33.065 19.086v38.775z" class="color1e1c6b svgShape"/><path fill="#34318f" d="m358.045 646.495-33.068-19.093v-38.768l33.068 19.086v38.775z" class="color34318f svgShape"/><path fill="#5555c6" d="m358.045 607.72-33.068-19.086 33.068-19.084 33.065 19.084-33.065 19.086z" class="color5555c6 svgShape"/><path style="mix-blend-mode:multiply" fill="url(#E)" d="M1379.685 1095.657h-47.675l29.802 17.74-29.802 17.209h47.675l30.254-17.469-30.254-17.48z"/><path fill="#1e1c6b" d="m1332.01 1130.606 29.802-17.209v-34.943l-29.802 17.203v34.949z" class="color1e1c6b svgShape"/><path fill="#34318f" d="m1332.01 1130.606-29.805-17.209v-34.943l29.805 17.203v34.949z" class="color34318f svgShape"/><path fill="#5555c6" d="m1332.01 1095.657-29.805-17.203 29.805-17.2 29.802 17.2-29.802 17.203z" class="color5555c6 svgShape"/><path style="mix-blend-mode:multiply" fill="url(#F)" d="M195.463 1024.048h-35.85l22.411 13.34-22.411 12.941h35.85l22.751-13.136-22.751-13.145z"/><path fill="#1e1c6b" d="m159.613 1050.329 22.411-12.941v-26.276l-22.411 12.936v26.281z" class="color1e1c6b svgShape"/><path fill="#34318f" d="m159.613 1050.329-22.412-12.941v-26.276l22.412 12.936v26.281z" class="color34318f svgShape"/><path fill="#5555c6" d="m159.613 1024.048-22.412-12.936 22.412-12.935 22.411 12.935-22.411 12.936z" class="color5555c6 svgShape"/></g></svg>